<svg width="59" height="10" viewBox="0 0 59 10" fill="none" xmlns="http://www.w3.org/2000/svg">
<path d="M5.08589 0.372956C5.2693 0.00133288 5.79922 0.00133225 5.98263 0.372955L7.18128 2.80169C7.25411 2.94926 7.39489 3.05155 7.55775 3.07521L10.238 3.46468C10.6481 3.52427 10.8119 4.02825 10.5151 4.31752L8.57566 6.20803C8.45782 6.3229 8.40405 6.4884 8.43187 6.6506L8.88971 9.32003C8.95976 9.72849 8.53105 10.04 8.16424 9.84712L5.76693 8.58678C5.62127 8.51021 5.44725 8.51021 5.30159 8.58678L2.90429 9.84712C2.53747 10.04 2.10875 9.72849 2.17881 9.32003L2.63665 6.6506C2.66447 6.4884 2.6107 6.3229 2.49286 6.20803L0.553396 4.31752C0.256638 4.02826 0.420392 3.52427 0.830502 3.46468L3.51077 3.07521C3.67363 3.05155 3.81441 2.94926 3.88724 2.80169L5.08589 0.372956ZM17.0859 0.372956C17.2693 0.00133288 17.7992 0.00133225 17.9826 0.372955L19.1813 2.80169C19.2541 2.94926 19.3949 3.05155 19.5577 3.07521L22.238 3.46468C22.6481 3.52427 22.8119 4.02825 22.5151 4.31752L20.5757 6.20803C20.4578 6.3229 20.404 6.4884 20.4319 6.6506L20.8897 9.32003C20.9598 9.72849 20.531 10.04 20.1642 9.84712L17.7669 8.58678C17.6213 8.51021 17.4473 8.51021 17.3016 8.58678L14.9043 9.84712C14.5375 10.04 14.1088 9.72849 14.1788 9.32003L14.6367 6.6506C14.6645 6.4884 14.6107 6.3229 14.4929 6.20803L12.5534 4.31752C12.2566 4.02826 12.4204 3.52427 12.8305 3.46468L15.5108 3.07521C15.6736 3.05155 15.8144 2.94926 15.8872 2.80169L17.0859 0.372956ZM29.0859 0.372956C29.2693 0.00133288 29.7992 0.00133225 29.9826 0.372955L31.1813 2.80169C31.2541 2.94926 31.3949 3.05155 31.5577 3.07521L34.238 3.46468C34.6481 3.52427 34.8119 4.02825 34.5151 4.31752L32.5757 6.20803C32.4578 6.3229 32.404 6.4884 32.4319 6.6506L32.8897 9.32003C32.9598 9.72849 32.531 10.04 32.1642 9.84712L29.7669 8.58678C29.6213 8.51021 29.4473 8.51021 29.3016 8.58678L26.9043 9.84712C26.5375 10.04 26.1088 9.72849 26.1788 9.32003L26.6367 6.6506C26.6645 6.4884 26.6107 6.3229 26.4929 6.20803L24.5534 4.31752C24.2566 4.02826 24.4204 3.52427 24.8305 3.46468L27.5108 3.07521C27.6736 3.05155 27.8144 2.94926 27.8872 2.80169L29.0859 0.372956ZM41.0859 0.372956C41.2693 0.00133288 41.7992 0.00133225 41.9826 0.372955L43.1813 2.80169C43.2541 2.94926 43.3949 3.05155 43.5578 3.07521L46.238 3.46468C46.6481 3.52427 46.8119 4.02825 46.5151 4.31752L44.5757 6.20803C44.4578 6.3229 44.404 6.4884 44.4319 6.6506L44.8897 9.32003C44.9598 9.72849 44.531 10.04 44.1642 9.84712L41.7669 8.58678C41.6213 8.51021 41.4473 8.51021 41.3016 8.58678L38.9043 9.84712C38.5375 10.04 38.1088 9.72849 38.1788 9.32003L38.6367 6.6506C38.6645 6.4884 38.6107 6.3229 38.4929 6.20803L36.5534 4.31752C36.2566 4.02826 36.4204 3.52427 36.8305 3.46468L39.5108 3.07521C39.6736 3.05155 39.8144 2.94926 39.8872 2.80169L41.0859 0.372956ZM53.0859 0.372956C53.2693 0.00133288 53.7992 0.00133225 53.9826 0.372955L55.1813 2.80169C55.2541 2.94926 55.3949 3.05155 55.5578 3.07521L58.238 3.46468C58.6481 3.52427 58.8119 4.02825 58.5151 4.31752L56.5757 6.20803C56.4578 6.3229 56.404 6.4884 56.4319 6.6506L56.8897 9.32003C56.9598 9.72849 56.531 10.04 56.1642 9.84712L53.7669 8.58678C53.6213 8.51021 53.4473 8.51021 53.3016 8.58678L50.9043 9.84712C50.5375 10.04 50.1088 9.72849 50.1788 9.32003L50.6367 6.6506C50.6645 6.4884 50.6107 6.3229 50.4929 6.20803L48.5534 4.31752C48.2566 4.02826 48.4204 3.52427 48.8305 3.46468L51.5108 3.07521C51.6736 3.05155 51.8144 2.94926 51.8872 2.80169L53.0859 0.372956Z" fill="#FFC700"/>
<path d="M5.08589 0.372956C5.2693 0.00133288 5.79922 0.00133225 5.98263 0.372955L7.18128 2.80169C7.25411 2.94926 7.39489 3.05155 7.55775 3.07521L10.238 3.46468C10.6481 3.52427 10.8119 4.02825 10.5151 4.31752L8.57566 6.20803C8.45782 6.3229 8.40405 6.4884 8.43187 6.6506L8.88971 9.32003C8.95976 9.72849 8.53105 10.04 8.16424 9.84712L5.76693 8.58678C5.62127 8.51021 5.44725 8.51021 5.30159 8.58678L2.90429 9.84712C2.53747 10.04 2.10875 9.72849 2.17881 9.32003L2.63665 6.6506C2.66447 6.4884 2.6107 6.3229 2.49286 6.20803L0.553396 4.31752C0.256638 4.02826 0.420392 3.52427 0.830502 3.46468L3.51077 3.07521C3.67363 3.05155 3.81441 2.94926 3.88724 2.80169L5.08589 0.372956ZM17.0859 0.372956C17.2693 0.00133288 17.7992 0.00133225 17.9826 0.372955L19.1813 2.80169C19.2541 2.94926 19.3949 3.05155 19.5577 3.07521L22.238 3.46468C22.6481 3.52427 22.8119 4.02825 22.5151 4.31752L20.5757 6.20803C20.4578 6.3229 20.404 6.4884 20.4319 6.6506L20.8897 9.32003C20.9598 9.72849 20.531 10.04 20.1642 9.84712L17.7669 8.58678C17.6213 8.51021 17.4473 8.51021 17.3016 8.58678L14.9043 9.84712C14.5375 10.04 14.1088 9.72849 14.1788 9.32003L14.6367 6.6506C14.6645 6.4884 14.6107 6.3229 14.4929 6.20803L12.5534 4.31752C12.2566 4.02826 12.4204 3.52427 12.8305 3.46468L15.5108 3.07521C15.6736 3.05155 15.8144 2.94926 15.8872 2.80169L17.0859 0.372956ZM29.0859 0.372956C29.2693 0.00133288 29.7992 0.00133225 29.9826 0.372955L31.1813 2.80169C31.2541 2.94926 31.3949 3.05155 31.5577 3.07521L34.238 3.46468C34.6481 3.52427 34.8119 4.02825 34.5151 4.31752L32.5757 6.20803C32.4578 6.3229 32.404 6.4884 32.4319 6.6506L32.8897 9.32003C32.9598 9.72849 32.531 10.04 32.1642 9.84712L29.7669 8.58678C29.6213 8.51021 29.4473 8.51021 29.3016 8.58678L26.9043 9.84712C26.5375 10.04 26.1088 9.72849 26.1788 9.32003L26.6367 6.6506C26.6645 6.4884 26.6107 6.3229 26.4929 6.20803L24.5534 4.31752C24.2566 4.02826 24.4204 3.52427 24.8305 3.46468L27.5108 3.07521C27.6736 3.05155 27.8144 2.94926 27.8872 2.80169L29.0859 0.372956ZM41.0859 0.372956C41.2693 0.00133288 41.7992 0.00133225 41.9826 0.372955L43.1813 2.80169C43.2541 2.94926 43.3949 3.05155 43.5578 3.07521L46.238 3.46468C46.6481 3.52427 46.8119 4.02825 46.5151 4.31752L44.5757 6.20803C44.4578 6.3229 44.404 6.4884 44.4319 6.6506L44.8897 9.32003C44.9598 9.72849 44.531 10.04 44.1642 9.84712L41.7669 8.58678C41.6213 8.51021 41.4473 8.51021 41.3016 8.58678L38.9043 9.84712C38.5375 10.04 38.1088 9.72849 38.1788 9.32003L38.6367 6.6506C38.6645 6.4884 38.6107 6.3229 38.4929 6.20803L36.5534 4.31752C36.2566 4.02826 36.4204 3.52427 36.8305 3.46468L39.5108 3.07521C39.6736 3.05155 39.8144 2.94926 39.8872 2.80169L41.0859 0.372956ZM53.0859 0.372956C53.2693 0.00133288 53.7992 0.00133225 53.9826 0.372955L55.1813 2.80169C55.2541 2.94926 55.3949 3.05155 55.5578 3.07521L58.238 3.46468C58.6481 3.52427 58.8119 4.02825 58.5151 4.31752L56.5757 6.20803C56.4578 6.3229 56.404 6.4884 56.4319 6.6506L56.8897 9.32003C56.9598 9.72849 56.531 10.04 56.1642 9.84712L53.7669 8.58678C53.6213 8.51021 53.4473 8.51021 53.3016 8.58678L50.9043 9.84712C50.5375 10.04 50.1088 9.72849 50.1788 9.32003L50.6367 6.6506C50.6645 6.4884 50.6107 6.3229 50.4929 6.20803L48.5534 4.31752C48.2566 4.02826 48.4204 3.52427 48.8305 3.46468L51.5108 3.07521C51.6736 3.05155 51.8144 2.94926 51.8872 2.80169L53.0859 0.372956Z" fill="#FFC700"/>
<path d="M5.08589 0.372956C5.2693 0.00133288 5.79922 0.00133225 5.98263 0.372955L7.18128 2.80169C7.25411 2.94926 7.39489 3.05155 7.55775 3.07521L10.238 3.46468C10.6481 3.52427 10.8119 4.02825 10.5151 4.31752L8.57566 6.20803C8.45782 6.3229 8.40405 6.4884 8.43187 6.6506L8.88971 9.32003C8.95976 9.72849 8.53105 10.04 8.16424 9.84712L5.76693 8.58678C5.62127 8.51021 5.44725 8.51021 5.30159 8.58678L2.90429 9.84712C2.53747 10.04 2.10875 9.72849 2.17881 9.32003L2.63665 6.6506C2.66447 6.4884 2.6107 6.3229 2.49286 6.20803L0.553396 4.31752C0.256638 4.02826 0.420392 3.52427 0.830502 3.46468L3.51077 3.07521C3.67363 3.05155 3.81441 2.94926 3.88724 2.80169L5.08589 0.372956ZM17.0859 0.372956C17.2693 0.00133288 17.7992 0.00133225 17.9826 0.372955L19.1813 2.80169C19.2541 2.94926 19.3949 3.05155 19.5577 3.07521L22.238 3.46468C22.6481 3.52427 22.8119 4.02825 22.5151 4.31752L20.5757 6.20803C20.4578 6.3229 20.404 6.4884 20.4319 6.6506L20.8897 9.32003C20.9598 9.72849 20.531 10.04 20.1642 9.84712L17.7669 8.58678C17.6213 8.51021 17.4473 8.51021 17.3016 8.58678L14.9043 9.84712C14.5375 10.04 14.1088 9.72849 14.1788 9.32003L14.6367 6.6506C14.6645 6.4884 14.6107 6.3229 14.4929 6.20803L12.5534 4.31752C12.2566 4.02826 12.4204 3.52427 12.8305 3.46468L15.5108 3.07521C15.6736 3.05155 15.8144 2.94926 15.8872 2.80169L17.0859 0.372956ZM29.0859 0.372956C29.2693 0.00133288 29.7992 0.00133225 29.9826 0.372955L31.1813 2.80169C31.2541 2.94926 31.3949 3.05155 31.5577 3.07521L34.238 3.46468C34.6481 3.52427 34.8119 4.02825 34.5151 4.31752L32.5757 6.20803C32.4578 6.3229 32.404 6.4884 32.4319 6.6506L32.8897 9.32003C32.9598 9.72849 32.531 10.04 32.1642 9.84712L29.7669 8.58678C29.6213 8.51021 29.4473 8.51021 29.3016 8.58678L26.9043 9.84712C26.5375 10.04 26.1088 9.72849 26.1788 9.32003L26.6367 6.6506C26.6645 6.4884 26.6107 6.3229 26.4929 6.20803L24.5534 4.31752C24.2566 4.02826 24.4204 3.52427 24.8305 3.46468L27.5108 3.07521C27.6736 3.05155 27.8144 2.94926 27.8872 2.80169L29.0859 0.372956ZM41.0859 0.372956C41.2693 0.00133288 41.7992 0.00133225 41.9826 0.372955L43.1813 2.80169C43.2541 2.94926 43.3949 3.05155 43.5578 3.07521L46.238 3.46468C46.6481 3.52427 46.8119 4.02825 46.5151 4.31752L44.5757 6.20803C44.4578 6.3229 44.404 6.4884 44.4319 6.6506L44.8897 9.32003C44.9598 9.72849 44.531 10.04 44.1642 9.84712L41.7669 8.58678C41.6213 8.51021 41.4473 8.51021 41.3016 8.58678L38.9043 9.84712C38.5375 10.04 38.1088 9.72849 38.1788 9.32003L38.6367 6.6506C38.6645 6.4884 38.6107 6.3229 38.4929 6.20803L36.5534 4.31752C36.2566 4.02826 36.4204 3.52427 36.8305 3.46468L39.5108 3.07521C39.6736 3.05155 39.8144 2.94926 39.8872 2.80169L41.0859 0.372956ZM53.0859 0.372956C53.2693 0.00133288 53.7992 0.00133225 53.9826 0.372955L55.1813 2.80169C55.2541 2.94926 55.3949 3.05155 55.5578 3.07521L58.238 3.46468C58.6481 3.52427 58.8119 4.02825 58.5151 4.31752L56.5757 6.20803C56.4578 6.3229 56.404 6.4884 56.4319 6.6506L56.8897 9.32003C56.9598 9.72849 56.531 10.04 56.1642 9.84712L53.7669 8.58678C53.6213 8.51021 53.4473 8.51021 53.3016 8.58678L50.9043 9.84712C50.5375 10.04 50.1088 9.72849 50.1788 9.32003L50.6367 6.6506C50.6645 6.4884 50.6107 6.3229 50.4929 6.20803L48.5534 4.31752C48.2566 4.02826 48.4204 3.52427 48.8305 3.46468L51.5108 3.07521C51.6736 3.05155 51.8144 2.94926 51.8872 2.80169L53.0859 0.372956Z" fill="#FFC700"/>
<path d="M5.08589 0.372956C5.2693 0.00133288 5.79922 0.00133225 5.98263 0.372955L7.18128 2.80169C7.25411 2.94926 7.39489 3.05155 7.55775 3.07521L10.238 3.46468C10.6481 3.52427 10.8119 4.02825 10.5151 4.31752L8.57566 6.20803C8.45782 6.3229 8.40405 6.4884 8.43187 6.6506L8.88971 9.32003C8.95976 9.72849 8.53105 10.04 8.16424 9.84712L5.76693 8.58678C5.62127 8.51021 5.44725 8.51021 5.30159 8.58678L2.90429 9.84712C2.53747 10.04 2.10875 9.72849 2.17881 9.32003L2.63665 6.6506C2.66447 6.4884 2.6107 6.3229 2.49286 6.20803L0.553396 4.31752C0.256638 4.02826 0.420392 3.52427 0.830502 3.46468L3.51077 3.07521C3.67363 3.05155 3.81441 2.94926 3.88724 2.80169L5.08589 0.372956ZM17.0859 0.372956C17.2693 0.00133288 17.7992 0.00133225 17.9826 0.372955L19.1813 2.80169C19.2541 2.94926 19.3949 3.05155 19.5577 3.07521L22.238 3.46468C22.6481 3.52427 22.8119 4.02825 22.5151 4.31752L20.5757 6.20803C20.4578 6.3229 20.404 6.4884 20.4319 6.6506L20.8897 9.32003C20.9598 9.72849 20.531 10.04 20.1642 9.84712L17.7669 8.58678C17.6213 8.51021 17.4473 8.51021 17.3016 8.58678L14.9043 9.84712C14.5375 10.04 14.1088 9.72849 14.1788 9.32003L14.6367 6.6506C14.6645 6.4884 14.6107 6.3229 14.4929 6.20803L12.5534 4.31752C12.2566 4.02826 12.4204 3.52427 12.8305 3.46468L15.5108 3.07521C15.6736 3.05155 15.8144 2.94926 15.8872 2.80169L17.0859 0.372956ZM29.0859 0.372956C29.2693 0.00133288 29.7992 0.00133225 29.9826 0.372955L31.1813 2.80169C31.2541 2.94926 31.3949 3.05155 31.5577 3.07521L34.238 3.46468C34.6481 3.52427 34.8119 4.02825 34.5151 4.31752L32.5757 6.20803C32.4578 6.3229 32.404 6.4884 32.4319 6.6506L32.8897 9.32003C32.9598 9.72849 32.531 10.04 32.1642 9.84712L29.7669 8.58678C29.6213 8.51021 29.4473 8.51021 29.3016 8.58678L26.9043 9.84712C26.5375 10.04 26.1088 9.72849 26.1788 9.32003L26.6367 6.6506C26.6645 6.4884 26.6107 6.3229 26.4929 6.20803L24.5534 4.31752C24.2566 4.02826 24.4204 3.52427 24.8305 3.46468L27.5108 3.07521C27.6736 3.05155 27.8144 2.94926 27.8872 2.80169L29.0859 0.372956ZM41.0859 0.372956C41.2693 0.00133288 41.7992 0.00133225 41.9826 0.372955L43.1813 2.80169C43.2541 2.94926 43.3949 3.05155 43.5578 3.07521L46.238 3.46468C46.6481 3.52427 46.8119 4.02825 46.5151 4.31752L44.5757 6.20803C44.4578 6.3229 44.404 6.4884 44.4319 6.6506L44.8897 9.32003C44.9598 9.72849 44.531 10.04 44.1642 9.84712L41.7669 8.58678C41.6213 8.51021 41.4473 8.51021 41.3016 8.58678L38.9043 9.84712C38.5375 10.04 38.1088 9.72849 38.1788 9.32003L38.6367 6.6506C38.6645 6.4884 38.6107 6.3229 38.4929 6.20803L36.5534 4.31752C36.2566 4.02826 36.4204 3.52427 36.8305 3.46468L39.5108 3.07521C39.6736 3.05155 39.8144 2.94926 39.8872 2.80169L41.0859 0.372956ZM53.0859 0.372956C53.2693 0.00133288 53.7992 0.00133225 53.9826 0.372955L55.1813 2.80169C55.2541 2.94926 55.3949 3.05155 55.5578 3.07521L58.238 3.46468C58.6481 3.52427 58.8119 4.02825 58.5151 4.31752L56.5757 6.20803C56.4578 6.3229 56.404 6.4884 56.4319 6.6506L56.8897 9.32003C56.9598 9.72849 56.531 10.04 56.1642 9.84712L53.7669 8.58678C53.6213 8.51021 53.4473 8.51021 53.3016 8.58678L50.9043 9.84712C50.5375 10.04 50.1088 9.72849 50.1788 9.32003L50.6367 6.6506C50.6645 6.4884 50.6107 6.3229 50.4929 6.20803L48.5534 4.31752C48.2566 4.02826 48.4204 3.52427 48.8305 3.46468L51.5108 3.07521C51.6736 3.05155 51.8144 2.94926 51.8872 2.80169L53.0859 0.372956Z" fill="#FFC700"/>
<path d="M5.08589 0.372956C5.2693 0.00133288 5.79922 0.00133225 5.98263 0.372955L7.18128 2.80169C7.25411 2.94926 7.39489 3.05155 7.55775 3.07521L10.238 3.46468C10.6481 3.52427 10.8119 4.02825 10.5151 4.31752L8.57566 6.20803C8.45782 6.3229 8.40405 6.4884 8.43187 6.6506L8.88971 9.32003C8.95976 9.72849 8.53105 10.04 8.16424 9.84712L5.76693 8.58678C5.62127 8.51021 5.44725 8.51021 5.30159 8.58678L2.90429 9.84712C2.53747 10.04 2.10875 9.72849 2.17881 9.32003L2.63665 6.6506C2.66447 6.4884 2.6107 6.3229 2.49286 6.20803L0.553396 4.31752C0.256638 4.02826 0.420392 3.52427 0.830502 3.46468L3.51077 3.07521C3.67363 3.05155 3.81441 2.94926 3.88724 2.80169L5.08589 0.372956ZM17.0859 0.372956C17.2693 0.00133288 17.7992 0.00133225 17.9826 0.372955L19.1813 2.80169C19.2541 2.94926 19.3949 3.05155 19.5577 3.07521L22.238 3.46468C22.6481 3.52427 22.8119 4.02825 22.5151 4.31752L20.5757 6.20803C20.4578 6.3229 20.404 6.4884 20.4319 6.6506L20.8897 9.32003C20.9598 9.72849 20.531 10.04 20.1642 9.84712L17.7669 8.58678C17.6213 8.51021 17.4473 8.51021 17.3016 8.58678L14.9043 9.84712C14.5375 10.04 14.1088 9.72849 14.1788 9.32003L14.6367 6.6506C14.6645 6.4884 14.6107 6.3229 14.4929 6.20803L12.5534 4.31752C12.2566 4.02826 12.4204 3.52427 12.8305 3.46468L15.5108 3.07521C15.6736 3.05155 15.8144 2.94926 15.8872 2.80169L17.0859 0.372956ZM29.0859 0.372956C29.2693 0.00133288 29.7992 0.00133225 29.9826 0.372955L31.1813 2.80169C31.2541 2.94926 31.3949 3.05155 31.5577 3.07521L34.238 3.46468C34.6481 3.52427 34.8119 4.02825 34.5151 4.31752L32.5757 6.20803C32.4578 6.3229 32.404 6.4884 32.4319 6.6506L32.8897 9.32003C32.9598 9.72849 32.531 10.04 32.1642 9.84712L29.7669 8.58678C29.6213 8.51021 29.4473 8.51021 29.3016 8.58678L26.9043 9.84712C26.5375 10.04 26.1088 9.72849 26.1788 9.32003L26.6367 6.6506C26.6645 6.4884 26.6107 6.3229 26.4929 6.20803L24.5534 4.31752C24.2566 4.02826 24.4204 3.52427 24.8305 3.46468L27.5108 3.07521C27.6736 3.05155 27.8144 2.94926 27.8872 2.80169L29.0859 0.372956ZM41.0859 0.372956C41.2693 0.00133288 41.7992 0.00133225 41.9826 0.372955L43.1813 2.80169C43.2541 2.94926 43.3949 3.05155 43.5578 3.07521L46.238 3.46468C46.6481 3.52427 46.8119 4.02825 46.5151 4.31752L44.5757 6.20803C44.4578 6.3229 44.404 6.4884 44.4319 6.6506L44.8897 9.32003C44.9598 9.72849 44.531 10.04 44.1642 9.84712L41.7669 8.58678C41.6213 8.51021 41.4473 8.51021 41.3016 8.58678L38.9043 9.84712C38.5375 10.04 38.1088 9.72849 38.1788 9.32003L38.6367 6.6506C38.6645 6.4884 38.6107 6.3229 38.4929 6.20803L36.5534 4.31752C36.2566 4.02826 36.4204 3.52427 36.8305 3.46468L39.5108 3.07521C39.6736 3.05155 39.8144 2.94926 39.8872 2.80169L41.0859 0.372956ZM53.0859 0.372956C53.2693 0.00133288 53.7992 0.00133225 53.9826 0.372955L55.1813 2.80169C55.2541 2.94926 55.3949 3.05155 55.5578 3.07521L58.238 3.46468C58.6481 3.52427 58.8119 4.02825 58.5151 4.31752L56.5757 6.20803C56.4578 6.3229 56.404 6.4884 56.4319 6.6506L56.8897 9.32003C56.9598 9.72849 56.531 10.04 56.1642 9.84712L53.7669 8.58678C53.6213 8.51021 53.4473 8.51021 53.3016 8.58678L50.9043 9.84712C50.5375 10.04 50.1088 9.72849 50.1788 9.32003L50.6367 6.6506C50.6645 6.4884 50.6107 6.3229 50.4929 6.20803L48.5534 4.31752C48.2566 4.02826 48.4204 3.52427 48.8305 3.46468L51.5108 3.07521C51.6736 3.05155 51.8144 2.94926 51.8872 2.80169L53.0859 0.372956Z" fill="#FFC700"/>
</svg>
