<svg width="59" height="10" viewBox="0 0 59 10" fill="none" xmlns="http://www.w3.org/2000/svg">
<path d="M4.75264 0.372956C4.93605 0.00133288 5.46597 0.00133225 5.64938 0.372955L6.84803 2.80169C6.92086 2.94926 7.06164 3.05155 7.2245 3.07521L9.90476 3.46468C10.3149 3.52427 10.4786 4.02825 10.1819 4.31752L8.24241 6.20803C8.12457 6.3229 8.07079 6.4884 8.09861 6.6506L8.55646 9.32003C8.62651 9.72849 8.1978 10.04 7.83098 9.84712L5.43368 8.58678C5.28802 8.51021 5.114 8.51021 4.96834 8.58678L2.57103 9.84712C2.20422 10.04 1.7755 9.72849 1.84556 9.32003L2.3034 6.6506C2.33122 6.4884 2.27745 6.3229 2.1596 6.20803L0.220144 4.31752C-0.0766143 4.02826 0.0871402 3.52427 0.49725 3.46468L3.17752 3.07521C3.34037 3.05155 3.48116 2.94926 3.55399 2.80169L4.75264 0.372956ZM16.7526 0.372956C16.936 0.00133288 17.466 0.00133225 17.6494 0.372955L18.848 2.80169C18.9209 2.94926 19.0616 3.05155 19.2245 3.07521L21.9048 3.46468C22.3149 3.52427 22.4786 4.02825 22.1819 4.31752L20.2424 6.20803C20.1246 6.3229 20.0708 6.4884 20.0986 6.6506L20.5565 9.32003C20.6265 9.72849 20.1978 10.04 19.831 9.84712L17.4337 8.58678C17.288 8.51021 17.114 8.51021 16.9683 8.58678L14.571 9.84712C14.2042 10.04 13.7755 9.72849 13.8456 9.32003L14.3034 6.6506C14.3312 6.4884 14.2774 6.3229 14.1596 6.20803L12.2201 4.31752C11.9234 4.02826 12.0871 3.52427 12.4973 3.46468L15.1775 3.07521C15.3404 3.05155 15.4812 2.94926 15.554 2.80169L16.7526 0.372956ZM28.7526 0.372956C28.936 0.00133288 29.466 0.00133225 29.6494 0.372955L30.848 2.80169C30.9209 2.94926 31.0616 3.05155 31.2245 3.07521L33.9048 3.46468C34.3149 3.52427 34.4786 4.02825 34.1819 4.31752L32.2424 6.20803C32.1246 6.3229 32.0708 6.4884 32.0986 6.6506L32.5565 9.32003C32.6265 9.72849 32.1978 10.04 31.831 9.84712L29.4337 8.58678C29.288 8.51021 29.114 8.51021 28.9683 8.58678L26.571 9.84712C26.2042 10.04 25.7755 9.72849 25.8456 9.32003L26.3034 6.6506C26.3312 6.4884 26.2774 6.3229 26.1596 6.20803L24.2201 4.31752C23.9234 4.02826 24.0871 3.52427 24.4972 3.46468L27.1775 3.07521C27.3404 3.05155 27.4812 2.94926 27.554 2.80169L28.7526 0.372956ZM40.7526 0.372956C40.936 0.00133288 41.466 0.00133225 41.6494 0.372955L42.848 2.80169C42.9209 2.94926 43.0616 3.05155 43.2245 3.07521L45.9048 3.46468C46.3149 3.52427 46.4786 4.02825 46.1819 4.31752L44.2424 6.20803C44.1246 6.3229 44.0708 6.4884 44.0986 6.6506L44.5565 9.32003C44.6265 9.72849 44.1978 10.04 43.831 9.84712L41.4337 8.58678C41.288 8.51021 41.114 8.51021 40.9683 8.58678L38.571 9.84712C38.2042 10.04 37.7755 9.72849 37.8456 9.32003L38.3034 6.6506C38.3312 6.4884 38.2774 6.3229 38.1596 6.20803L36.2201 4.31752C35.9234 4.02826 36.0871 3.52427 36.4972 3.46468L39.1775 3.07521C39.3404 3.05155 39.4812 2.94926 39.554 2.80169L40.7526 0.372956ZM52.7526 0.372956C52.936 0.00133288 53.466 0.00133225 53.6494 0.372955L54.848 2.80169C54.9209 2.94926 55.0616 3.05155 55.2245 3.07521L57.9048 3.46468C58.3149 3.52427 58.4786 4.02825 58.1819 4.31752L56.2424 6.20803C56.1246 6.3229 56.0708 6.4884 56.0986 6.6506L56.5565 9.32003C56.6265 9.72849 56.1978 10.04 55.831 9.84712L53.4337 8.58678C53.288 8.51021 53.114 8.51021 52.9683 8.58678L50.571 9.84712C50.2042 10.04 49.7755 9.72849 49.8456 9.32003L50.3034 6.6506C50.3312 6.4884 50.2774 6.3229 50.1596 6.20803L48.2201 4.31752C47.9234 4.02826 48.0871 3.52427 48.4972 3.46468L51.1775 3.07521C51.3404 3.05155 51.4812 2.94926 51.554 2.80169L52.7526 0.372956Z" fill="#FFC700"/>
<path d="M4.75264 0.372956C4.93605 0.00133288 5.46597 0.00133225 5.64938 0.372955L6.84803 2.80169C6.92086 2.94926 7.06164 3.05155 7.2245 3.07521L9.90476 3.46468C10.3149 3.52427 10.4786 4.02825 10.1819 4.31752L8.24241 6.20803C8.12457 6.3229 8.07079 6.4884 8.09861 6.6506L8.55646 9.32003C8.62651 9.72849 8.1978 10.04 7.83098 9.84712L5.43368 8.58678C5.28802 8.51021 5.114 8.51021 4.96834 8.58678L2.57103 9.84712C2.20422 10.04 1.7755 9.72849 1.84556 9.32003L2.3034 6.6506C2.33122 6.4884 2.27745 6.3229 2.1596 6.20803L0.220144 4.31752C-0.0766143 4.02826 0.0871402 3.52427 0.49725 3.46468L3.17752 3.07521C3.34037 3.05155 3.48116 2.94926 3.55399 2.80169L4.75264 0.372956ZM16.7526 0.372956C16.936 0.00133288 17.466 0.00133225 17.6494 0.372955L18.848 2.80169C18.9209 2.94926 19.0616 3.05155 19.2245 3.07521L21.9048 3.46468C22.3149 3.52427 22.4786 4.02825 22.1819 4.31752L20.2424 6.20803C20.1246 6.3229 20.0708 6.4884 20.0986 6.6506L20.5565 9.32003C20.6265 9.72849 20.1978 10.04 19.831 9.84712L17.4337 8.58678C17.288 8.51021 17.114 8.51021 16.9683 8.58678L14.571 9.84712C14.2042 10.04 13.7755 9.72849 13.8456 9.32003L14.3034 6.6506C14.3312 6.4884 14.2774 6.3229 14.1596 6.20803L12.2201 4.31752C11.9234 4.02826 12.0871 3.52427 12.4973 3.46468L15.1775 3.07521C15.3404 3.05155 15.4812 2.94926 15.554 2.80169L16.7526 0.372956ZM28.7526 0.372956C28.936 0.00133288 29.466 0.00133225 29.6494 0.372955L30.848 2.80169C30.9209 2.94926 31.0616 3.05155 31.2245 3.07521L33.9048 3.46468C34.3149 3.52427 34.4786 4.02825 34.1819 4.31752L32.2424 6.20803C32.1246 6.3229 32.0708 6.4884 32.0986 6.6506L32.5565 9.32003C32.6265 9.72849 32.1978 10.04 31.831 9.84712L29.4337 8.58678C29.288 8.51021 29.114 8.51021 28.9683 8.58678L26.571 9.84712C26.2042 10.04 25.7755 9.72849 25.8456 9.32003L26.3034 6.6506C26.3312 6.4884 26.2774 6.3229 26.1596 6.20803L24.2201 4.31752C23.9234 4.02826 24.0871 3.52427 24.4972 3.46468L27.1775 3.07521C27.3404 3.05155 27.4812 2.94926 27.554 2.80169L28.7526 0.372956ZM40.7526 0.372956C40.936 0.00133288 41.466 0.00133225 41.6494 0.372955L42.848 2.80169C42.9209 2.94926 43.0616 3.05155 43.2245 3.07521L45.9048 3.46468C46.3149 3.52427 46.4786 4.02825 46.1819 4.31752L44.2424 6.20803C44.1246 6.3229 44.0708 6.4884 44.0986 6.6506L44.5565 9.32003C44.6265 9.72849 44.1978 10.04 43.831 9.84712L41.4337 8.58678C41.288 8.51021 41.114 8.51021 40.9683 8.58678L38.571 9.84712C38.2042 10.04 37.7755 9.72849 37.8456 9.32003L38.3034 6.6506C38.3312 6.4884 38.2774 6.3229 38.1596 6.20803L36.2201 4.31752C35.9234 4.02826 36.0871 3.52427 36.4972 3.46468L39.1775 3.07521C39.3404 3.05155 39.4812 2.94926 39.554 2.80169L40.7526 0.372956ZM52.7526 0.372956C52.936 0.00133288 53.466 0.00133225 53.6494 0.372955L54.848 2.80169C54.9209 2.94926 55.0616 3.05155 55.2245 3.07521L57.9048 3.46468C58.3149 3.52427 58.4786 4.02825 58.1819 4.31752L56.2424 6.20803C56.1246 6.3229 56.0708 6.4884 56.0986 6.6506L56.5565 9.32003C56.6265 9.72849 56.1978 10.04 55.831 9.84712L53.4337 8.58678C53.288 8.51021 53.114 8.51021 52.9683 8.58678L50.571 9.84712C50.2042 10.04 49.7755 9.72849 49.8456 9.32003L50.3034 6.6506C50.3312 6.4884 50.2774 6.3229 50.1596 6.20803L48.2201 4.31752C47.9234 4.02826 48.0871 3.52427 48.4972 3.46468L51.1775 3.07521C51.3404 3.05155 51.4812 2.94926 51.554 2.80169L52.7526 0.372956Z" fill="#FFC700"/>
<path d="M4.75264 0.372956C4.93605 0.00133288 5.46597 0.00133225 5.64938 0.372955L6.84803 2.80169C6.92086 2.94926 7.06164 3.05155 7.2245 3.07521L9.90476 3.46468C10.3149 3.52427 10.4786 4.02825 10.1819 4.31752L8.24241 6.20803C8.12457 6.3229 8.07079 6.4884 8.09861 6.6506L8.55646 9.32003C8.62651 9.72849 8.1978 10.04 7.83098 9.84712L5.43368 8.58678C5.28802 8.51021 5.114 8.51021 4.96834 8.58678L2.57103 9.84712C2.20422 10.04 1.7755 9.72849 1.84556 9.32003L2.3034 6.6506C2.33122 6.4884 2.27745 6.3229 2.1596 6.20803L0.220144 4.31752C-0.0766143 4.02826 0.0871402 3.52427 0.49725 3.46468L3.17752 3.07521C3.34037 3.05155 3.48116 2.94926 3.55399 2.80169L4.75264 0.372956ZM16.7526 0.372956C16.936 0.00133288 17.466 0.00133225 17.6494 0.372955L18.848 2.80169C18.9209 2.94926 19.0616 3.05155 19.2245 3.07521L21.9048 3.46468C22.3149 3.52427 22.4786 4.02825 22.1819 4.31752L20.2424 6.20803C20.1246 6.3229 20.0708 6.4884 20.0986 6.6506L20.5565 9.32003C20.6265 9.72849 20.1978 10.04 19.831 9.84712L17.4337 8.58678C17.288 8.51021 17.114 8.51021 16.9683 8.58678L14.571 9.84712C14.2042 10.04 13.7755 9.72849 13.8456 9.32003L14.3034 6.6506C14.3312 6.4884 14.2774 6.3229 14.1596 6.20803L12.2201 4.31752C11.9234 4.02826 12.0871 3.52427 12.4973 3.46468L15.1775 3.07521C15.3404 3.05155 15.4812 2.94926 15.554 2.80169L16.7526 0.372956ZM28.7526 0.372956C28.936 0.00133288 29.466 0.00133225 29.6494 0.372955L30.848 2.80169C30.9209 2.94926 31.0616 3.05155 31.2245 3.07521L33.9048 3.46468C34.3149 3.52427 34.4786 4.02825 34.1819 4.31752L32.2424 6.20803C32.1246 6.3229 32.0708 6.4884 32.0986 6.6506L32.5565 9.32003C32.6265 9.72849 32.1978 10.04 31.831 9.84712L29.4337 8.58678C29.288 8.51021 29.114 8.51021 28.9683 8.58678L26.571 9.84712C26.2042 10.04 25.7755 9.72849 25.8456 9.32003L26.3034 6.6506C26.3312 6.4884 26.2774 6.3229 26.1596 6.20803L24.2201 4.31752C23.9234 4.02826 24.0871 3.52427 24.4972 3.46468L27.1775 3.07521C27.3404 3.05155 27.4812 2.94926 27.554 2.80169L28.7526 0.372956ZM40.7526 0.372956C40.936 0.00133288 41.466 0.00133225 41.6494 0.372955L42.848 2.80169C42.9209 2.94926 43.0616 3.05155 43.2245 3.07521L45.9048 3.46468C46.3149 3.52427 46.4786 4.02825 46.1819 4.31752L44.2424 6.20803C44.1246 6.3229 44.0708 6.4884 44.0986 6.6506L44.5565 9.32003C44.6265 9.72849 44.1978 10.04 43.831 9.84712L41.4337 8.58678C41.288 8.51021 41.114 8.51021 40.9683 8.58678L38.571 9.84712C38.2042 10.04 37.7755 9.72849 37.8456 9.32003L38.3034 6.6506C38.3312 6.4884 38.2774 6.3229 38.1596 6.20803L36.2201 4.31752C35.9234 4.02826 36.0871 3.52427 36.4972 3.46468L39.1775 3.07521C39.3404 3.05155 39.4812 2.94926 39.554 2.80169L40.7526 0.372956ZM52.7526 0.372956C52.936 0.00133288 53.466 0.00133225 53.6494 0.372955L54.848 2.80169C54.9209 2.94926 55.0616 3.05155 55.2245 3.07521L57.9048 3.46468C58.3149 3.52427 58.4786 4.02825 58.1819 4.31752L56.2424 6.20803C56.1246 6.3229 56.0708 6.4884 56.0986 6.6506L56.5565 9.32003C56.6265 9.72849 56.1978 10.04 55.831 9.84712L53.4337 8.58678C53.288 8.51021 53.114 8.51021 52.9683 8.58678L50.571 9.84712C50.2042 10.04 49.7755 9.72849 49.8456 9.32003L50.3034 6.6506C50.3312 6.4884 50.2774 6.3229 50.1596 6.20803L48.2201 4.31752C47.9234 4.02826 48.0871 3.52427 48.4972 3.46468L51.1775 3.07521C51.3404 3.05155 51.4812 2.94926 51.554 2.80169L52.7526 0.372956Z" fill="#FFC700"/>
<path d="M4.75264 0.372956C4.93605 0.00133288 5.46597 0.00133225 5.64938 0.372955L6.84803 2.80169C6.92086 2.94926 7.06164 3.05155 7.2245 3.07521L9.90476 3.46468C10.3149 3.52427 10.4786 4.02825 10.1819 4.31752L8.24241 6.20803C8.12457 6.3229 8.07079 6.4884 8.09861 6.6506L8.55646 9.32003C8.62651 9.72849 8.1978 10.04 7.83098 9.84712L5.43368 8.58678C5.28802 8.51021 5.114 8.51021 4.96834 8.58678L2.57103 9.84712C2.20422 10.04 1.7755 9.72849 1.84556 9.32003L2.3034 6.6506C2.33122 6.4884 2.27745 6.3229 2.1596 6.20803L0.220144 4.31752C-0.0766143 4.02826 0.0871402 3.52427 0.49725 3.46468L3.17752 3.07521C3.34037 3.05155 3.48116 2.94926 3.55399 2.80169L4.75264 0.372956ZM16.7526 0.372956C16.936 0.00133288 17.466 0.00133225 17.6494 0.372955L18.848 2.80169C18.9209 2.94926 19.0616 3.05155 19.2245 3.07521L21.9048 3.46468C22.3149 3.52427 22.4786 4.02825 22.1819 4.31752L20.2424 6.20803C20.1246 6.3229 20.0708 6.4884 20.0986 6.6506L20.5565 9.32003C20.6265 9.72849 20.1978 10.04 19.831 9.84712L17.4337 8.58678C17.288 8.51021 17.114 8.51021 16.9683 8.58678L14.571 9.84712C14.2042 10.04 13.7755 9.72849 13.8456 9.32003L14.3034 6.6506C14.3312 6.4884 14.2774 6.3229 14.1596 6.20803L12.2201 4.31752C11.9234 4.02826 12.0871 3.52427 12.4973 3.46468L15.1775 3.07521C15.3404 3.05155 15.4812 2.94926 15.554 2.80169L16.7526 0.372956ZM28.7526 0.372956C28.936 0.00133288 29.466 0.00133225 29.6494 0.372955L30.848 2.80169C30.9209 2.94926 31.0616 3.05155 31.2245 3.07521L33.9048 3.46468C34.3149 3.52427 34.4786 4.02825 34.1819 4.31752L32.2424 6.20803C32.1246 6.3229 32.0708 6.4884 32.0986 6.6506L32.5565 9.32003C32.6265 9.72849 32.1978 10.04 31.831 9.84712L29.4337 8.58678C29.288 8.51021 29.114 8.51021 28.9683 8.58678L26.571 9.84712C26.2042 10.04 25.7755 9.72849 25.8456 9.32003L26.3034 6.6506C26.3312 6.4884 26.2774 6.3229 26.1596 6.20803L24.2201 4.31752C23.9234 4.02826 24.0871 3.52427 24.4972 3.46468L27.1775 3.07521C27.3404 3.05155 27.4812 2.94926 27.554 2.80169L28.7526 0.372956ZM40.7526 0.372956C40.936 0.00133288 41.466 0.00133225 41.6494 0.372955L42.848 2.80169C42.9209 2.94926 43.0616 3.05155 43.2245 3.07521L45.9048 3.46468C46.3149 3.52427 46.4786 4.02825 46.1819 4.31752L44.2424 6.20803C44.1246 6.3229 44.0708 6.4884 44.0986 6.6506L44.5565 9.32003C44.6265 9.72849 44.1978 10.04 43.831 9.84712L41.4337 8.58678C41.288 8.51021 41.114 8.51021 40.9683 8.58678L38.571 9.84712C38.2042 10.04 37.7755 9.72849 37.8456 9.32003L38.3034 6.6506C38.3312 6.4884 38.2774 6.3229 38.1596 6.20803L36.2201 4.31752C35.9234 4.02826 36.0871 3.52427 36.4972 3.46468L39.1775 3.07521C39.3404 3.05155 39.4812 2.94926 39.554 2.80169L40.7526 0.372956ZM52.7526 0.372956C52.936 0.00133288 53.466 0.00133225 53.6494 0.372955L54.848 2.80169C54.9209 2.94926 55.0616 3.05155 55.2245 3.07521L57.9048 3.46468C58.3149 3.52427 58.4786 4.02825 58.1819 4.31752L56.2424 6.20803C56.1246 6.3229 56.0708 6.4884 56.0986 6.6506L56.5565 9.32003C56.6265 9.72849 56.1978 10.04 55.831 9.84712L53.4337 8.58678C53.288 8.51021 53.114 8.51021 52.9683 8.58678L50.571 9.84712C50.2042 10.04 49.7755 9.72849 49.8456 9.32003L50.3034 6.6506C50.3312 6.4884 50.2774 6.3229 50.1596 6.20803L48.2201 4.31752C47.9234 4.02826 48.0871 3.52427 48.4972 3.46468L51.1775 3.07521C51.3404 3.05155 51.4812 2.94926 51.554 2.80169L52.7526 0.372956Z" fill="#FFC700"/>
<path d="M4.75264 0.372956C4.93605 0.00133288 5.46597 0.00133225 5.64938 0.372955L6.84803 2.80169C6.92086 2.94926 7.06164 3.05155 7.2245 3.07521L9.90476 3.46468C10.3149 3.52427 10.4786 4.02825 10.1819 4.31752L8.24241 6.20803C8.12457 6.3229 8.07079 6.4884 8.09861 6.6506L8.55646 9.32003C8.62651 9.72849 8.1978 10.04 7.83098 9.84712L5.43368 8.58678C5.28802 8.51021 5.114 8.51021 4.96834 8.58678L2.57103 9.84712C2.20422 10.04 1.7755 9.72849 1.84556 9.32003L2.3034 6.6506C2.33122 6.4884 2.27745 6.3229 2.1596 6.20803L0.220144 4.31752C-0.0766143 4.02826 0.0871402 3.52427 0.49725 3.46468L3.17752 3.07521C3.34037 3.05155 3.48116 2.94926 3.55399 2.80169L4.75264 0.372956ZM16.7526 0.372956C16.936 0.00133288 17.466 0.00133225 17.6494 0.372955L18.848 2.80169C18.9209 2.94926 19.0616 3.05155 19.2245 3.07521L21.9048 3.46468C22.3149 3.52427 22.4786 4.02825 22.1819 4.31752L20.2424 6.20803C20.1246 6.3229 20.0708 6.4884 20.0986 6.6506L20.5565 9.32003C20.6265 9.72849 20.1978 10.04 19.831 9.84712L17.4337 8.58678C17.288 8.51021 17.114 8.51021 16.9683 8.58678L14.571 9.84712C14.2042 10.04 13.7755 9.72849 13.8456 9.32003L14.3034 6.6506C14.3312 6.4884 14.2774 6.3229 14.1596 6.20803L12.2201 4.31752C11.9234 4.02826 12.0871 3.52427 12.4973 3.46468L15.1775 3.07521C15.3404 3.05155 15.4812 2.94926 15.554 2.80169L16.7526 0.372956ZM28.7526 0.372956C28.936 0.00133288 29.466 0.00133225 29.6494 0.372955L30.848 2.80169C30.9209 2.94926 31.0616 3.05155 31.2245 3.07521L33.9048 3.46468C34.3149 3.52427 34.4786 4.02825 34.1819 4.31752L32.2424 6.20803C32.1246 6.3229 32.0708 6.4884 32.0986 6.6506L32.5565 9.32003C32.6265 9.72849 32.1978 10.04 31.831 9.84712L29.4337 8.58678C29.288 8.51021 29.114 8.51021 28.9683 8.58678L26.571 9.84712C26.2042 10.04 25.7755 9.72849 25.8456 9.32003L26.3034 6.6506C26.3312 6.4884 26.2774 6.3229 26.1596 6.20803L24.2201 4.31752C23.9234 4.02826 24.0871 3.52427 24.4972 3.46468L27.1775 3.07521C27.3404 3.05155 27.4812 2.94926 27.554 2.80169L28.7526 0.372956ZM40.7526 0.372956C40.936 0.00133288 41.466 0.00133225 41.6494 0.372955L42.848 2.80169C42.9209 2.94926 43.0616 3.05155 43.2245 3.07521L45.9048 3.46468C46.3149 3.52427 46.4786 4.02825 46.1819 4.31752L44.2424 6.20803C44.1246 6.3229 44.0708 6.4884 44.0986 6.6506L44.5565 9.32003C44.6265 9.72849 44.1978 10.04 43.831 9.84712L41.4337 8.58678C41.288 8.51021 41.114 8.51021 40.9683 8.58678L38.571 9.84712C38.2042 10.04 37.7755 9.72849 37.8456 9.32003L38.3034 6.6506C38.3312 6.4884 38.2774 6.3229 38.1596 6.20803L36.2201 4.31752C35.9234 4.02826 36.0871 3.52427 36.4972 3.46468L39.1775 3.07521C39.3404 3.05155 39.4812 2.94926 39.554 2.80169L40.7526 0.372956ZM52.7526 0.372956C52.936 0.00133288 53.466 0.00133225 53.6494 0.372955L54.848 2.80169C54.9209 2.94926 55.0616 3.05155 55.2245 3.07521L57.9048 3.46468C58.3149 3.52427 58.4786 4.02825 58.1819 4.31752L56.2424 6.20803C56.1246 6.3229 56.0708 6.4884 56.0986 6.6506L56.5565 9.32003C56.6265 9.72849 56.1978 10.04 55.831 9.84712L53.4337 8.58678C53.288 8.51021 53.114 8.51021 52.9683 8.58678L50.571 9.84712C50.2042 10.04 49.7755 9.72849 49.8456 9.32003L50.3034 6.6506C50.3312 6.4884 50.2774 6.3229 50.1596 6.20803L48.2201 4.31752C47.9234 4.02826 48.0871 3.52427 48.4972 3.46468L51.1775 3.07521C51.3404 3.05155 51.4812 2.94926 51.554 2.80169L52.7526 0.372956Z" fill="#FFC700"/>
</svg>
