<svg width="20" height="20" viewBox="0 0 20 20" fill="none" xmlns="http://www.w3.org/2000/svg">
<path fill-rule="evenodd" clip-rule="evenodd" d="M14.1357 14.9972C12.8152 16.1214 11.1035 16.7998 9.23341 16.7998C5.05446 16.7998 1.66675 13.4121 1.66675 9.23317C1.66675 5.05422 5.05446 1.6665 9.23341 1.6665C13.4124 1.6665 16.8001 5.05422 16.8001 9.23317C16.8001 11.092 16.1298 12.7943 15.0178 14.1115L18.6498 17.7435L17.7659 18.6274L14.1357 14.9972ZM15.5501 9.23317C15.5501 12.7218 12.722 15.5498 9.23341 15.5498C5.74482 15.5498 2.91675 12.7218 2.91675 9.23317C2.91675 5.74457 5.74482 2.9165 9.23341 2.9165C12.722 2.9165 15.5501 5.74457 15.5501 9.23317Z" fill="black" fill-opacity="0.7"/>
</svg>
