<svg width="40" height="36" viewBox="0 0 40 36" fill="none" xmlns="http://www.w3.org/2000/svg">
<path d="M20 0.5H14.1667C12.6196 0.5 11.1359 1.11458 10.0419 2.20854C8.94796 3.30251 8.33337 4.78624 8.33337 6.33333C8.33337 7.88043 8.94796 9.36416 10.0419 10.4581C11.1359 11.5521 12.6196 12.1667 14.1667 12.1667M20 0.5V12.1667M20 0.5H25.8334C26.5994 0.5 27.358 0.650883 28.0657 0.944036C28.7734 1.23719 29.4165 1.66687 29.9582 2.20854C30.4998 2.75022 30.9295 3.39328 31.2227 4.10101C31.5158 4.80875 31.6667 5.56729 31.6667 6.33333C31.6667 7.09938 31.5158 7.85792 31.2227 8.56565C30.9295 9.27339 30.4998 9.91645 29.9582 10.4581C29.4165 10.9998 28.7734 11.4295 28.0657 11.7226C27.358 12.0158 26.5994 12.1667 25.8334 12.1667M20 12.1667H14.1667M20 12.1667H25.8334M20 12.1667V23.8333M14.1667 12.1667C12.6196 12.1667 11.1359 12.7812 10.0419 13.8752C8.94796 14.9692 8.33337 16.4529 8.33337 18C8.33337 19.5471 8.94796 21.0308 10.0419 22.1248C11.1359 23.2188 12.6196 23.8333 14.1667 23.8333M25.8334 12.1667C25.0673 12.1667 24.3088 12.3175 23.6011 12.6107C22.8933 12.9039 22.2503 13.3335 21.7086 13.8752C21.1669 14.4169 20.7372 15.0599 20.4441 15.7677C20.1509 16.4754 20 17.234 20 18C20 18.766 20.1509 19.5246 20.4441 20.2323C20.7372 20.9401 21.1669 21.5831 21.7086 22.1248C22.2503 22.6665 22.8933 23.0961 23.6011 23.3893C24.3088 23.6824 25.0673 23.8333 25.8334 23.8333C26.5994 23.8333 27.358 23.6824 28.0657 23.3893C28.7734 23.0961 29.4165 22.6665 29.9582 22.1248C30.4998 21.5831 30.9295 20.9401 31.2227 20.2323C31.5158 19.5246 31.6667 18.766 31.6667 18C31.6667 17.234 31.5158 16.4754 31.2227 15.7677C30.9295 15.0599 30.4998 14.4169 29.9582 13.8752C29.4165 13.3335 28.7734 12.9039 28.0657 12.6107C27.358 12.3175 26.5994 12.1667 25.8334 12.1667ZM14.1667 23.8333C12.6196 23.8333 11.1359 24.4479 10.0419 25.5419C8.94796 26.6358 8.33337 28.1196 8.33337 29.6667C8.33337 31.2138 8.94796 32.6975 10.0419 33.7915C11.1359 34.8854 12.6196 35.5 14.1667 35.5C15.7138 35.5 17.1975 34.8854 18.2915 33.7915C19.3855 32.6975 20 31.2138 20 29.6667V23.8333M14.1667 23.8333H20" stroke="#1E1E1E" stroke-width="3.5" stroke-linecap="round" stroke-linejoin="round"/>
</svg>
